<svg width="40" height="30" viewBox="0 0 40 30" fill="none" xmlns="http://www.w3.org/2000/svg">
<path d="M27 6.25C27 4.5924 26.3415 3.00269 25.1694 1.83058C23.9973 0.65848 22.4076 0 20.75 0H6.25C4.5924 0 3.00269 0.65848 1.83058 1.83058C0.65848 3.00269 0 4.5924 0 6.25V23.75C0 25.4076 0.65848 26.9973 1.83058 28.1694C3.00269 29.3415 4.5924 30 6.25 30H20.75C22.4076 30 23.9973 29.3415 25.1694 28.1694C26.3415 26.9973 27 25.4076 27 23.75V6.25ZM29 20.532L35.961 25.968C37.603 27.25 40 26.08 40 23.998V6.003C40 3.92 37.603 2.751 35.961 4.033L29 9.468V20.532Z" fill="#F8F8F8"/>
</svg>
